<mxfile host="app.diagrams.net" agent="Mozilla/5.0 (Macintosh; Intel Mac OS X 10_15_7) AppleWebKit/537.36 (KHTML, like Gecko) Chrome/132.0.0.0 Safari/537.36" version="26.0.16">
  <diagram name="第 1 页" id="dAHRBwOXD1z6wCvWJFVk">
    <mxGraphModel dx="1026" dy="684" grid="1" gridSize="10" guides="1" tooltips="1" connect="1" arrows="1" fold="1" page="1" pageScale="1" pageWidth="827" pageHeight="1169" math="0" shadow="0">
      <root>
        <mxCell id="0" />
        <mxCell id="1" parent="0" />
        <mxCell id="mRETQj7M4DIgmBdIZbkP-1" value="" style="rounded=1;whiteSpace=wrap;html=1;" vertex="1" parent="1">
          <mxGeometry x="70" y="210" width="90" height="140" as="geometry" />
        </mxCell>
        <mxCell id="mRETQj7M4DIgmBdIZbkP-2" value="type" style="rounded=0;whiteSpace=wrap;html=1;" vertex="1" parent="1">
          <mxGeometry x="80" y="220" width="70" height="30" as="geometry" />
        </mxCell>
        <mxCell id="mRETQj7M4DIgmBdIZbkP-3" value="privdata" style="rounded=0;whiteSpace=wrap;html=1;" vertex="1" parent="1">
          <mxGeometry x="80" y="250" width="70" height="30" as="geometry" />
        </mxCell>
        <mxCell id="mRETQj7M4DIgmBdIZbkP-4" value="ht" style="rounded=0;whiteSpace=wrap;html=1;" vertex="1" parent="1">
          <mxGeometry x="80" y="280" width="70" height="30" as="geometry" />
        </mxCell>
        <mxCell id="mRETQj7M4DIgmBdIZbkP-5" value="rehashidx" style="rounded=0;whiteSpace=wrap;html=1;" vertex="1" parent="1">
          <mxGeometry x="80" y="310" width="70" height="30" as="geometry" />
        </mxCell>
      </root>
    </mxGraphModel>
  </diagram>
</mxfile>
